<svg xmlns="http://www.w3.org/2000/svg" viewBox="0 0 567.44 72"><defs><style>.a{fill:#f84018;}</style></defs><title>aptiv_logo_color_rgb</title><path class="a" d="M62.88,72A13.44,13.44,0,1,1,49.44,58.56,13.44,13.44,0,0,1,62.88,72ZM590,58.56A13.44,13.44,0,1,0,603.44,72,13.44,13.44,0,0,0,590,58.56Z" transform="translate(-36 -36)"/><path d="M170.4,108H151.74L146.5,89.34H122.3L117.15,108H98.9l21.58-72h28.34ZM126.33,74.62h16l-5.75-20.87h-4.43ZM240.78,36c17,0,26.93,8.67,26.93,23.7,0,15.23-9.88,24.1-26.93,24.1H225.05V108H206.3V36Zm-2.42,31.77c7.36,0,10.19-2.63,10.19-7.77s-2.83-7.66-10.19-7.66H225.05V67.77Zm126-15.23H342.73V108H324V52.54H302.49V36h61.82ZM426.87,108H408.12V36h18.75Zm43.64-72h19.63l13.61,54.25h4.44L521.7,36h19.24l-20.07,72h-30.2Z" transform="translate(-36 -36)"/></svg>